<svg width="36" height="54" viewBox="0 0 36 54" fill="none" xmlns="http://www.w3.org/2000/svg">
<path d="M17.9625 4.48059L4.77216 26.3154L2.08228 40.2175L10.0224 50.8414H23.1594L33.3246 42.1693V30.2455L17.9625 4.48059Z" fill="#1F8FEB"/>
<path d="M17.7948 0.00537678C18.4273 -0.150913 20.3438 3.14642 20.8048 3.84781C25.3921 10.816 35.2715 26.9368 35.9001 34.8694C37.3784 53.5822 11.8702 61.3357 2.53562 45.3789C-1.73163 38.0829 0.0133678 32.2087 3.1757 25.027C6.98574 16.3662 12.6284 7.90372 17.7948 0.00537678ZM18.3549 7.24807L17.57 7.48441C14.4306 12.9431 10.9063 18.2341 8.1859 23.9368C4.67686 31.29 1.18305 38.5479 7.68679 45.5657C17.2881 55.9228 34.9476 46.8808 31.4271 32.8681C29.2249 24.0969 22.3974 15.2913 18.3587 7.24807H18.3549Z" fill="#D0D0D0"/>
</svg>
