<svg width="35" height="53" viewBox="0 0 35 53" fill="none" xmlns="http://www.w3.org/2000/svg">
<path d="M17.3165 0.00379674C17.932 -0.149588 19.7971 3.08645 20.2458 3.77481C24.7103 10.6135 34.3251 26.4346 34.937 34.2198C36.3757 52.5848 11.5505 60.1942 2.46584 44.534C-1.68714 37.3735 0.0148377 31.6085 3.08879 24.5603C6.79681 16.0605 12.2884 7.75907 17.3165 0.00379674ZM17.8615 7.11561L17.0977 7.34755C14.0423 12.7048 10.6124 17.8974 7.96483 23.4941C4.54975 30.7107 1.14949 37.8337 7.47908 44.721C16.8233 54.8856 34.01 46.0117 30.5838 32.2595C28.4405 23.6512 21.7957 15.0093 17.8652 7.11561H17.8615Z" fill="#D0D0D0"/>
<path d="M5.03547 30.112C9.64453 30.4936 11.632 35.7985 16.4154 35.791C19.6339 35.7873 20.2161 33.2283 22.3853 31.6197C31.6776 24.7286 33.5835 37.4894 27.9881 44.4254C18.1878 56.5653 -1.16063 44.6013 5.03917 30.1158L5.03547 30.112Z" fill="#1F8FEB"/>
</svg>
